# xmcd
#
# Track frame offsets: 
#        150
#        30354
#        47323
#        82591
#        135195
#        159434
#        182230
#        206898
#        231745
#        289203
#
# Disc length: 4277 seconds
#
# Revision: 1
# Processed by: cddbd v1.5.1PL0 Copyright (c) Steve Scherf et al.
# Submitted via: ExactAudioCopy v0.95b3
#
DISCID=7c10b30a
DTITLE=Ray Wylie Hubbard - Live At Cibolo Creek Country Club
DYEAR=1998
DGENRE=Country
TTITLE0=Loco Gringo's Lament
TTITLE1=Without Love
TTITLE2=Ballad of the Crimson Kings
TTITLE3=When She Sang Amazing Grace
TTITLE4=Last Train To Amsterdam
TTITLE5=There Are Some Days
TTITLE6=The River Bed
TTITLE7=Last Younger Son
TTITLE8=Wanna Rock And Roll
TTITLE9=The Obligatory Encore
EXTD=
EXTT0=
EXTT1=
EXTT2=
EXTT3=
EXTT4=
EXTT5=
EXTT6=
EXTT7=
EXTT8=
EXTT9=
PLAYORDER=
